<?xml version="1.0" encoding="UTF-8" standalone="no"?><!DOCTYPE svg PUBLIC "-//W3C//DTD SVG 1.1//EN" "http://www.w3.org/Graphics/SVG/1.1/DTD/svg11.dtd"><svg width="100%" height="100%" viewBox="0 0 3724 4046" version="1.1" xmlns="http://www.w3.org/2000/svg" xmlns:xlink="http://www.w3.org/1999/xlink" xml:space="preserve" xmlns:serif="http://www.serif.com/" style="fill-rule:evenodd;clip-rule:evenodd;stroke-linejoin:round;stroke-miterlimit:2;"><path d="M677.922,1911.69c-254.497,52.903 -446.301,42.467 -670.672,-103.653l-6.776,-17.234c115.799,-464.401 135.564,-802.467 183.891,-1037.07c33.192,-161.13 80.393,-274.411 177.728,-347.789c0.896,-0.675 1.86,-1.254 2.877,-1.727l865.861,-402.726l14.093,0.311c441.762,229.716 848.184,230.306 1219.26,0.59c3.763,-2.33 8.325,-2.992 12.595,-1.829c323.378,88.09 606.109,226.99 857.469,405.103c97.461,69.06 147.33,201.813 184.012,379.764c53.421,259.163 80.957,615.629 204.56,1004.4c2.222,6.99 -0.607,14.595 -6.857,18.434c-197.4,121.238 -420.984,155.328 -670.316,103.501l0,1956.94l-11.733,15.389c-809.203,222.179 -1588.98,208.947 -2344.29,-0.008c-6.915,-1.914 -11.704,-8.206 -11.704,-15.381l0,-1957.01Zm1797.11,-1878.51c-377.084,230.793 -789.69,231.365 -1237.84,0.546l-857.177,398.687c-90.855,69.188 -133.254,176.594 -164.392,327.754c-48,233.02 -67.919,567.967 -181.437,1027.25c217.817,138.556 405.07,143.609 656.301,88.978c4.718,-1.026 9.646,0.139 13.405,3.169c3.759,3.029 5.945,7.597 5.945,12.425l0,1964.55c742.538,203.358 1508.91,216.083 2303.89,-0.026l0,-1964.52c0,-4.846 2.203,-9.431 5.987,-12.459c3.784,-3.029 8.739,-4.174 13.468,-3.112c243.805,54.743 462.477,25.84 655.431,-88.924c-120.793,-385.387 -148.574,-738.298 -201.617,-995.625c-34.663,-168.163 -79.104,-294.903 -171.204,-360.165c-246.696,-174.808 -523.967,-311.398 -840.768,-398.522Z"/></svg>